<?xml version="1.0" standalone="no"?>
<!DOCTYPE svg PUBLIC "-//W3C//DTD SVG 20010904//EN"
 "http://www.w3.org/TR/2001/REC-SVG-20010904/DTD/svg10.dtd">
<svg version="1.0" xmlns="http://www.w3.org/2000/svg"
 width="783.000000pt" height="783.000000pt" viewBox="0 0 783.000000 783.000000"
 preserveAspectRatio="xMidYMid meet">
<metadata>
Created by potrace 1.14, written by Peter Selinger 2001-2017
</metadata>
<g transform="translate(0.000000,783.000000) scale(0.100000,-0.100000)"
fill="#000000" stroke="none">
<path d="M3689 7826 c-2 -2 -49 -6 -104 -10 -55 -3 -111 -8 -125 -10 -14 -2
-46 -7 -71 -10 -66 -10 -232 -39 -334 -60 -80 -16 -253 -65 -377 -106 -472
-156 -898 -397 -1313 -742 -66 -56 -359 -349 -415 -417 -25 -29 -53 -63 -64
-75 -142 -162 -350 -483 -471 -726 -182 -364 -325 -812 -370 -1160 -3 -25 -10
-72 -15 -105 -31 -204 -35 -781 -5 -932 2 -11 6 -44 9 -74 3 -30 8 -65 10 -79
3 -14 10 -54 16 -90 31 -186 109 -478 176 -658 169 -455 395 -838 724 -1227
51 -61 313 -322 378 -377 37 -32 78 -67 92 -79 57 -49 222 -171 320 -236 403
-269 851 -459 1325 -561 135 -30 162 -35 250 -47 22 -4 67 -10 100 -15 207
-31 789 -35 941 -6 10 2 42 7 69 10 201 26 623 122 720 165 11 5 56 21 100 37
171 59 455 192 631 295 89 52 343 220 367 242 6 7 30 25 52 41 147 109 439
384 576 544 196 229 394 523 522 777 61 121 117 241 117 250 0 3 9 24 19 48
23 51 80 207 111 302 24 76 95 351 103 400 3 17 12 68 20 115 9 47 18 110 22
140 4 30 9 66 10 80 27 198 26 787 0 890 -2 8 -6 42 -10 75 -3 33 -8 67 -10
75 -2 8 -6 37 -10 64 -3 27 -8 52 -10 56 -2 4 -7 28 -10 53 -5 38 -41 180 -99
397 -2 8 -24 71 -49 140 -127 356 -298 683 -516 985 -36 50 -68 92 -71 95 -3
3 -17 21 -31 40 -15 19 -39 49 -53 65 -14 17 -45 53 -68 82 -76 93 -370 376
-486 468 -213 168 -372 276 -583 392 -370 205 -817 360 -1229 429 -52 8 -105
17 -117 19 -12 2 -57 7 -100 10 -43 4 -87 9 -98 12 -23 6 -560 14 -566 9z
m571 -150 c25 -4 86 -11 135 -17 50 -6 99 -13 110 -15 11 -3 38 -7 60 -10 77
-11 311 -67 440 -105 260 -78 504 -181 740 -313 353 -197 662 -440 940 -737
515 -550 883 -1330 970 -2054 4 -27 8 -60 10 -73 26 -159 26 -732 1 -867 -2
-11 -7 -45 -11 -75 -38 -306 -135 -662 -257 -952 -203 -481 -498 -908 -877
-1272 -87 -82 -88 -83 -161 -146 -36 -30 -67 -58 -70 -61 -12 -15 -244 -182
-325 -234 -375 -241 -808 -423 -1225 -513 -116 -25 -173 -37 -231 -46 -19 -2
-61 -8 -94 -11 -33 -4 -63 -9 -66 -11 -3 -1 -52 -6 -110 -11 -198 -15 -655 -8
-755 11 -11 2 -45 7 -75 10 -30 3 -64 8 -75 10 -12 2 -39 7 -60 10 -374 59
-827 219 -1199 424 -113 62 -342 210 -385 250 -14 12 -28 22 -32 22 -12 0
-246 197 -326 274 -84 80 -200 199 -232 236 -12 14 -34 39 -48 55 -132 148
-298 384 -419 595 -53 93 -183 352 -183 365 0 3 -9 24 -19 48 -67 151 -176
494 -206 652 -9 45 -33 176 -39 210 -7 40 -24 181 -33 280 -15 155 -7 644 11
741 2 11 7 47 10 80 4 32 9 68 11 79 6 23 14 69 20 105 5 29 22 114 30 150 3
14 8 35 11 47 2 12 22 85 44 161 95 329 214 598 425 951 36 60 151 223 224
316 518 664 1230 1129 2051 1339 145 37 144 37 325 66 149 24 168 27 285 35
52 4 97 9 99 11 6 5 513 -4 561 -10z"/>
<path d="M3675 7233 c-23 -5 -64 -23 -82 -36 -20 -14 -4 -28 18 -17 10 6 19 9
19 7 0 -1 -18 -39 -39 -82 -49 -102 -75 -185 -61 -199 7 -7 13 -7 18 -1 4 6
27 10 51 11 37 0 48 5 77 37 42 45 46 95 12 127 -22 21 -23 22 -4 32 30 17 66
59 66 77 0 34 -33 53 -75 44z m47 -51 c-8 -22 -41 -49 -74 -61 -27 -10 -39 1
-17 14 10 7 26 41 27 60 1 14 45 24 59 13 6 -5 9 -17 5 -26z m-41 -126 c21
-46 -39 -126 -96 -126 -27 0 -28 28 -5 90 21 57 24 60 56 60 27 0 37 -6 45
-24z"/>
<path d="M3945 7221 c-72 -45 -86 -101 -41 -167 14 -21 26 -42 26 -46 0 -19
-42 -48 -69 -48 -38 0 -50 29 -21 52 25 20 9 34 -20 16 -22 -14 -27 -57 -8
-76 20 -20 91 -15 116 8 28 27 27 55 -3 105 -29 47 -31 67 -9 101 28 42 104
72 104 40 0 -17 -56 -66 -76 -66 -15 0 -19 -12 -8 -23 9 -9 55 17 81 45 20 22
27 39 24 66 -2 18 -62 15 -96 -7z"/>
<path d="M3459 7217 c-64 -24 -90 -38 -85 -45 3 -5 -8 -43 -24 -85 -37 -93
-61 -195 -49 -202 4 -3 30 6 56 20 26 14 56 25 65 25 18 0 24 11 12 23 -4 3
-29 -3 -57 -13 -28 -11 -52 -19 -53 -17 -1 1 7 30 17 64 19 61 19 61 69 74 60
15 71 42 13 28 -21 -5 -41 -9 -45 -9 -4 0 3 22 15 49 21 47 25 50 75 63 29 7
52 17 50 23 -4 12 -29 13 -59 2z"/>
<path d="M4238 7203 c-18 -15 -58 -53 -88 -85 -30 -31 -67 -60 -82 -64 -16 -3
-28 -12 -28 -20 0 -9 6 -11 17 -7 17 7 17 6 0 -20 -53 -82 -50 -77 -34 -77 8
0 29 22 47 49 40 63 47 69 99 77 40 6 43 6 33 -12 -18 -34 -30 -122 -18 -127
8 -3 17 17 25 52 19 85 21 90 42 96 22 7 26 25 4 25 -12 0 -10 11 10 56 39 89
32 105 -27 57z m-9 -74 c-16 -28 -33 -45 -51 -50 -16 -4 -28 -3 -28 2 0 11 92
101 98 95 2 -3 -6 -24 -19 -47z"/>
<path d="M3210 7169 c-20 -37 -48 -132 -66 -222 -21 -105 -36 -97 -35 19 0 41
-4 72 -9 69 -4 -3 -21 -42 -35 -88 -15 -45 -31 -86 -36 -91 -9 -10 -5 55 11
173 7 53 8 87 2 93 -14 14 -19 1 -27 -72 -4 -36 -9 -74 -11 -85 -7 -34 -7
-152 0 -164 17 -26 35 -7 52 54 10 36 22 65 26 65 5 0 7 -3 7 -7 -4 -26 3 -62
15 -78 20 -27 43 -6 51 48 12 74 47 210 66 254 18 43 9 71 -11 32z"/>
<path d="M4426 7114 c-65 -75 -116 -160 -116 -189 0 -25 17 -9 41 41 23 46
122 172 146 187 15 9 18 37 3 37 -5 0 -39 -34 -74 -76z"/>
<path d="M4580 7137 c0 -11 12 -13 51 -11 56 3 57 5 -9 -65 -19 -20 -56 -67
-83 -105 -36 -51 -46 -72 -38 -80 8 -8 13 -7 16 2 8 22 95 136 142 185 25 27
47 52 49 56 1 4 30 4 63 -1 33 -6 63 -7 67 -4 18 18 -49 33 -166 35 -74 2 -92
-1 -92 -12z"/>
<path d="M4919 7075 c-1 -3 -2 -8 -4 -12 -1 -5 -43 -50 -93 -100 -51 -51 -92
-101 -92 -110 0 -16 10 -18 75 -19 71 -1 94 7 59 20 -9 3 -33 6 -55 6 -21 0
-39 4 -39 8 0 4 17 27 39 51 l39 43 56 -7 c65 -7 77 9 16 22 -43 9 -42 14 7
54 29 25 35 26 84 17 67 -12 88 5 25 21 -46 11 -115 15 -117 6z"/>
<path d="M2671 7013 c-5 -10 -19 -61 -31 -113 -33 -143 -38 -154 -40 -100 -2
54 0 106 6 142 4 28 -11 47 -27 31 -10 -10 -45 -149 -54 -214 -13 -96 -8 -177
9 -158 2 2 6 45 10 94 11 180 30 254 32 124 1 -121 43 -148 59 -39 3 25 8 52
10 60 2 8 7 29 10 47 13 82 22 70 17 -24 -5 -117 2 -168 24 -177 14 -5 15 -1
8 31 -10 42 -11 178 -3 261 4 38 2 52 -7 52 -8 0 -17 -8 -23 -17z"/>
<path d="M5332 6904 c-52 -18 -138 -72 -169 -105 -65 -71 -34 -146 53 -125 28
7 108 55 102 61 -2 3 -26 -7 -53 -20 -74 -38 -114 -30 -106 20 7 47 139 143
219 160 26 5 32 3 32 -10 0 -20 -38 -54 -62 -55 -18 0 -34 -18 -25 -27 19 -19
107 48 107 82 0 37 -30 43 -98 19z"/>
<path d="M2361 6828 c-6 -29 -13 -69 -16 -88 -13 -81 -37 -205 -42 -213 -9
-15 -29 12 -32 45 -1 18 -4 44 -5 56 -2 24 6 96 19 166 6 30 5 38 -6 34 -35
-12 -48 -262 -16 -312 33 -50 57 -30 76 64 9 49 12 67 22 130 1 8 5 -12 9 -45
9 -74 27 -122 41 -108 6 6 5 23 -4 49 -9 24 -15 84 -15 154 -1 124 -14 153
-31 68z"/>
<path d="M5577 6803 c-19 -3 -27 -9 -23 -18 6 -15 -61 -62 -81 -57 -7 2 -13
-1 -13 -6 0 -6 -27 -29 -60 -53 -33 -24 -60 -50 -60 -56 0 -19 16 -16 37 6 10
10 31 26 46 36 l29 18 -2 -49 c-3 -74 -1 -86 11 -82 7 2 13 30 14 63 1 33 3
65 4 71 1 8 13 8 42 -3 78 -26 161 6 167 65 3 27 -2 33 -37 51 -22 12 -42 20
-43 20 -2 -1 -16 -4 -31 -6z m81 -46 c47 -37 -48 -88 -120 -64 -16 5 -28 12
-28 15 0 4 22 21 48 38 46 30 72 33 100 11z"/>
<path d="M2104 6725 c-10 -26 3 -256 16 -293 20 -55 31 -22 16 48 -7 36 -12
107 -10 157 2 87 -8 126 -22 88z"/>
<path d="M5823 6656 c-4 -7 -42 -30 -83 -51 -92 -46 -171 -102 -164 -118 2 -7
17 -13 34 -14 16 -1 47 -11 70 -23 34 -17 40 -18 40 -5 0 14 -21 26 -85 49
-19 7 -19 8 3 25 13 9 39 25 57 35 33 18 35 18 77 -3 50 -24 58 -25 58 -10 0
5 -16 17 -35 25 -19 8 -35 16 -35 19 0 2 21 14 47 26 l47 21 53 -26 c28 -14
55 -22 57 -17 8 12 -12 27 -77 56 -45 19 -58 22 -64 11z"/>
<path d="M1918 6623 c-3 -10 -4 -73 -3 -141 2 -139 -7 -140 -35 -4 -18 94 -35
114 -46 57 -7 -37 0 -208 10 -255 3 -14 9 -40 12 -58 6 -33 19 -49 27 -35 3 5
-4 49 -14 98 -10 50 -18 117 -18 150 1 58 1 59 10 20 4 -22 10 -50 13 -62 8
-37 37 -84 49 -80 9 3 11 38 10 123 -3 114 7 132 20 39 9 -57 32 -129 50 -156
14 -19 17 -20 22 -7 4 9 0 27 -9 40 -17 26 -46 133 -53 193 -2 22 -6 49 -8 60
-2 11 -4 23 -4 28 -2 15 -29 6 -33 -10z"/>
<path d="M6030 6470 c-25 -5 -65 -15 -90 -22 -31 -10 -56 -12 -79 -6 -36 10
-54 2 -31 -12 17 -11 17 -11 -37 -35 -24 -10 -43 -24 -43 -31 0 -9 21 -4 70
17 68 29 70 29 110 13 l42 -17 -52 -52 c-35 -36 -48 -55 -40 -60 7 -5 32 12
63 44 42 41 57 49 76 44 20 -5 22 -3 17 15 -6 16 3 26 44 53 81 52 64 69 -50
49z m40 -19 c0 -4 -17 -19 -37 -33 -31 -20 -43 -23 -65 -16 -16 6 -28 13 -28
18 0 4 12 10 28 13 54 10 87 18 91 23 7 6 11 5 11 -5z"/>
<path d="M1654 6423 c-16 -20 -35 -43 -43 -50 -10 -11 -11 -19 -3 -36 6 -12
14 -42 17 -67 4 -25 17 -82 31 -126 24 -82 47 -111 59 -73 4 11 22 39 40 64
19 24 30 47 25 50 -10 6 -58 -42 -66 -67 -10 -32 -21 -19 -38 43 l-17 60 35
44 c43 52 32 70 -12 21 l-30 -34 -6 36 c-11 66 -7 83 29 120 37 40 43 52 22
52 -7 0 -27 -17 -43 -37z"/>
<path d="M6200 6347 c0 -8 18 -22 40 -32 22 -10 37 -21 35 -25 -3 -4 -24 -13
-49 -19 -61 -15 -208 -78 -217 -93 -17 -27 4 -25 66 7 36 18 98 43 138 55 40
13 77 27 83 32 7 5 30 -7 62 -32 28 -22 53 -36 56 -31 11 17 -75 86 -161 130
-50 25 -53 25 -53 8z"/>
<path d="M1429 6209 c-35 -34 -50 -102 -21 -97 16 3 42 -67 34 -91 -2 -7 0
-16 5 -20 5 -3 20 -34 32 -69 13 -34 28 -65 33 -68 20 -13 20 8 -1 55 -28 67
-27 73 12 57 17 -8 47 -17 66 -21 56 -12 32 15 -30 35 -81 25 -81 26 -54 66
44 65 41 149 -6 174 -27 15 -36 12 -70 -21z m76 -11 c13 -38 11 -70 -7 -107
-11 -23 -23 -41 -27 -41 -4 0 -14 25 -24 55 -13 43 -14 60 -5 80 12 27 55 35
63 13z"/>
<path d="M3710 6206 c0 -2 40 -31 88 -64 95 -65 168 -137 177 -174 23 -91 6
-148 -95 -323 -90 -155 -97 -296 -21 -456 18 -38 28 -52 24 -34 -25 128 -6
227 80 426 61 141 76 181 92 259 l11 55 32 -33 c18 -19 46 -72 67 -127 21 -52
39 -95 42 -95 11 0 -6 126 -22 175 -39 115 -129 225 -245 300 -86 56 -230 113
-230 91z"/>
<path d="M3651 6133 c-83 -39 -179 -61 -255 -57 -36 2 -71 6 -76 9 -6 3 -10 3
-10 -2 0 -4 48 -37 106 -73 58 -36 110 -71 116 -77 8 -10 21 -2 53 32 62 63
156 99 224 84 l34 -7 -34 26 c-19 15 -48 41 -65 59 -17 18 -33 33 -35 32 -2 0
-28 -12 -58 -26z"/>
<path d="M6430 6131 c0 -5 8 -12 18 -14 9 -3 -3 -6 -28 -7 -25 -1 -52 -3 -60
-5 -8 -2 -30 -6 -49 -9 -70 -13 -133 -62 -124 -97 14 -53 188 -55 299 -3 59
28 64 92 10 127 -27 18 -66 23 -66 8z m75 -51 c25 -41 -56 -88 -167 -96 -154
-12 -159 55 -6 90 66 16 165 19 173 6z"/>
<path d="M3250 6091 c0 -5 5 -22 11 -38 19 -50 22 -118 17 -463 -3 -170 4
-227 37 -316 27 -73 62 -117 161 -201 103 -88 115 -93 230 -97 103 -4 139 7
67 20 -67 12 -146 56 -203 113 -127 128 -180 316 -171 604 1 37 2 37 24 23 33
-22 102 -45 155 -52 113 -14 186 -38 220 -72 20 -20 20 -20 24 26 8 100 -49
147 -237 195 -168 43 -207 64 -263 147 -24 36 -46 77 -49 93 -5 25 -23 39 -23
18z"/>
<path d="M1253 6011 c-42 -46 -47 -56 -44 -90 3 -39 21 -68 21 -35 1 12 9 3
24 -26 13 -25 22 -48 19 -52 -2 -4 1 -13 7 -20 6 -7 25 -37 41 -65 16 -29 34
-53 39 -53 15 0 12 10 -20 74 -18 35 -26 62 -21 66 21 12 39 77 36 125 -2 39
-9 54 -30 72 -32 28 -50 29 -72 4z m61 -17 c22 -22 24 -85 4 -136 -12 -32 -23
-36 -31 -10 -3 9 -15 36 -25 58 -20 41 -20 42 -1 73 21 35 31 38 53 15z"/>
<path d="M3700 5993 c-49 -18 -67 -68 -27 -78 44 -12 128 18 140 49 11 28 -64
47 -113 29z"/>
<path d="M4515 5987 c-61 -19 -92 -37 -141 -86 -51 -50 -109 -154 -121 -214
-6 -31 -5 -31 33 18 47 62 75 88 85 78 4 -5 12 -35 17 -67 24 -152 -9 -321
-93 -473 -39 -72 -30 -84 16 -20 47 65 78 140 110 271 83 336 103 386 169 418
19 9 62 19 95 23 60 6 92 19 54 22 -11 1 -43 10 -72 19 -61 20 -111 24 -152
11z"/>
<path d="M3868 5919 c-20 -11 -75 -28 -122 -38 -47 -9 -89 -21 -93 -25 -4 -4
-3 -6 2 -5 26 9 175 -89 175 -114 0 -5 7 -15 15 -23 15 -16 24 -1 61 100 15
41 19 126 7 125 -5 0 -25 -9 -45 -20z"/>
<path d="M6614 5911 c9 -14 -11 -23 -58 -26 -22 -1 -54 -5 -71 -9 -97 -25
-135 -38 -135 -47 0 -13 31 -11 78 5 22 8 43 12 46 9 3 -3 -3 -22 -13 -42 -26
-52 -34 -81 -22 -81 6 0 24 30 41 66 l30 66 35 -31 c19 -17 48 -33 63 -37 15
-3 33 -7 40 -10 23 -7 79 23 85 45 8 34 -46 94 -89 98 -21 2 -33 0 -30 -6z
m76 -51 c67 -67 -59 -87 -134 -21 -17 15 -16 17 30 28 70 16 82 15 104 -7z"/>
<path d="M3023 5838 c2 -13 12 -50 20 -83 9 -33 19 -89 22 -125 5 -61 7 -77
21 -140 3 -14 7 -35 10 -48 27 -133 140 -293 247 -352 l42 -23 -36 39 c-174
188 -226 500 -111 662 l21 28 -42 0 c-26 0 -70 13 -114 32 -39 18 -74 32 -78
32 -4 0 -5 -10 -2 -22z"/>
<path d="M4556 5286 c-43 -66 -136 -124 -286 -177 -71 -25 -88 -35 -68 -37 35
-4 40 -23 19 -63 -22 -41 -58 -63 -131 -83 -48 -12 -57 -12 -72 1 -21 18 -14
40 25 76 16 15 28 30 26 32 -2 2 -51 -18 -109 -45 -115 -52 -193 -72 -255 -65
-33 4 -19 -6 84 -56 136 -66 143 -67 256 -34 139 41 274 118 367 208 60 58
137 169 157 226 14 42 9 49 -13 17z"/>
<path d="M3087 5136 c-170 -70 -259 -211 -194 -307 62 -92 144 -97 407 -27
138 37 275 46 360 23 54 -15 136 -22 145 -13 7 7 -134 85 -195 107 -116 43
-210 60 -325 59 -152 -1 -152 -1 -176 23 -26 26 -20 66 16 121 14 21 24 38 23
38 -2 0 -29 -11 -61 -24z"/>
<path d="M4076 4795 c-62 -50 -197 -64 -291 -29 -13 4 -6 -8 21 -37 127 -136
213 -299 267 -504 34 -132 41 -193 40 -359 -1 -166 -13 -216 -64 -267 -105
-105 -351 -87 -498 37 -36 30 -33 36 23 54 79 25 221 12 399 -38 37 -11 67
-16 67 -11 0 9 -48 68 -75 91 -26 23 -133 76 -165 82 -14 3 -36 8 -50 11 -42
11 -221 8 -290 -4 -143 -26 -361 -93 -413 -127 -16 -10 -12 -12 28 -18 129
-20 260 -84 442 -217 67 -50 141 -95 165 -102 46 -14 141 -15 198 -3 141 32
253 142 265 259 2 23 7 60 11 81 9 53 8 281 -1 347 -4 30 -21 101 -37 159 -34
119 -31 108 -53 214 -24 114 -17 232 19 310 15 32 26 67 24 77 -3 16 -6 15
-32 -6z"/>
<path d="M4475 3750 c-228 -34 -394 -224 -450 -515 -14 -71 -14 -360 0 -455
11 -80 45 -194 73 -249 30 -60 102 -144 102 -120 0 8 -4 19 -9 24 -18 21 -71
203 -87 301 -3 20 -8 46 -11 58 -12 53 -10 297 3 376 38 220 132 387 184 325
12 -15 10 -42 -5 -79 -7 -17 -5 -18 21 -12 60 15 132 56 219 125 49 39 112 82
140 94 88 42 214 63 279 47 96 -24 108 -20 61 24 -22 20 -56 31 -160 51 -48
10 -305 13 -360 5z"/>
<path d="M6452 2430 c-9 -18 -27 -48 -40 -67 -26 -40 -22 -55 8 -28 11 10 22
16 24 14 5 -5 76 -151 76 -156 0 -3 -21 -2 -47 2 -104 14 -129 26 -113 55 6
11 6 21 1 24 -10 6 -91 -106 -91 -124 0 -7 8 -5 20 3 18 12 31 13 88 2 37 -7
86 -15 108 -18 23 -4 70 -24 108 -48 65 -41 66 -42 51 -65 -8 -13 -15 -28 -15
-34 0 -19 27 -10 37 13 6 12 27 43 47 70 50 65 48 110 -2 52 l-22 -25 -76 52
c-68 46 -80 59 -107 116 -29 62 -37 117 -23 159 11 35 -13 37 -32 3z"/>
<path d="M1375 2401 c17 -35 14 -41 -63 -93 -26 -18 -67 -48 -92 -67 -25 -20
-62 -45 -82 -56 -35 -18 -38 -18 -56 -2 -32 29 -44 19 -20 -15 13 -18 29 -39
36 -46 6 -7 12 -16 12 -20 1 -4 9 -17 20 -30 25 -30 45 -20 24 12 -15 23 -13
25 51 70 36 25 71 46 77 46 16 0 4 -60 -28 -141 -28 -70 -37 -81 -48 -54 -6
16 -26 21 -26 6 0 -17 94 -140 107 -140 10 -1 10 6 2 27 -9 22 -5 45 22 129
29 89 35 100 50 92 50 -26 142 15 152 68 8 44 -33 122 -122 225 -24 28 -33 21
-16 -11z m97 -143 c7 -47 -37 -93 -90 -93 -40 0 -82 25 -82 50 0 11 24 31 97
80 33 23 38 24 54 10 9 -9 19 -30 21 -47z"/>
<path d="M3513 2033 c-4 -2 -7 -61 -5 -133 l3 -130 64 0 c57 0 63 2 58 19 -4
15 -13 18 -43 16 -42 -3 -49 6 -42 58 4 23 9 27 38 27 26 0 34 4 34 18 0 14
-8 18 -37 18 -36 -1 -37 0 -38 37 l-1 37 43 0 c36 0 43 3 43 19 0 18 -7 20
-55 18 -30 -1 -58 -3 -62 -4z"/>
<path d="M3710 2033 c-32 -12 -50 -37 -50 -70 0 -34 8 -45 75 -98 40 -32 26
-59 -34 -63 -33 -3 -42 -7 -39 -20 5 -22 63 -18 98 7 37 27 40 82 4 110 -15
11 -33 21 -40 21 -18 0 -36 37 -29 60 6 19 57 36 75 25 5 -3 10 3 10 14 0 16
-6 21 -27 20 -16 0 -35 -3 -43 -6z"/>
<path d="M3806 2032 c-13 -12 10 -32 38 -32 l32 0 0 -112 c-1 -107 0 -113 19
-113 19 0 20 6 19 113 l-2 112 33 0 c20 0 35 6 39 15 3 8 2 15 -2 16 -30 3
-173 5 -176 1z"/>
<path d="M4135 2028 c-11 -6 -21 -12 -23 -13 -1 -1 0 -9 3 -17 5 -13 11 -14
36 -5 39 15 65 -1 62 -37 -1 -15 -25 -58 -52 -95 -28 -38 -51 -74 -51 -80 0
-18 136 -15 143 4 8 20 -1 23 -51 19 l-44 -3 17 27 c10 15 26 36 36 47 31 35
50 91 39 119 -16 42 -71 59 -115 34z"/>
<path d="M4327 2020 c-50 -39 -63 -154 -24 -210 40 -60 92 -57 130 7 36 63 18
186 -32 213 -29 15 -45 12 -74 -10z m73 -45 c30 -56 6 -175 -35 -175 -48 0
-67 148 -25 190 23 23 42 18 60 -15z"/>
<path d="M4502 2013 c-22 -19 -29 -32 -23 -42 6 -9 11 -10 15 -2 18 29 25 2
22 -94 -2 -102 -2 -106 18 -103 22 3 21 -11 17 221 -1 26 -5 47 -10 47 -4 0
-22 -12 -39 -27z"/>
<path d="M4602 1970 c3 -63 4 -65 28 -62 67 8 106 -37 74 -85 -14 -22 -21 -24
-54 -19 -24 4 -41 2 -46 -5 -17 -29 53 -44 99 -22 84 42 53 163 -41 163 -32 0
-33 2 -30 33 3 31 4 32 53 32 39 0 50 4 53 17 3 15 -6 17 -68 15 l-71 -1 3
-66z"/>
<path d="M1562 1998 c-76 -36 -141 -124 -142 -191 -1 -143 124 -242 259 -205
76 21 161 137 161 219 0 69 -46 141 -110 174 -45 23 -121 25 -168 3z m181 -37
c28 -11 51 -61 50 -108 -1 -34 -34 -98 -75 -144 -32 -37 -95 -65 -149 -68 -41
-2 -49 1 -74 30 -24 29 -27 39 -23 86 11 132 161 245 271 204z"/>
<path d="M6135 2002 c-28 -17 -146 -142 -153 -163 -6 -15 14 -10 28 6 7 8 20
15 29 15 19 0 251 -223 251 -241 0 -7 -7 -21 -17 -31 -9 -10 -13 -21 -9 -25 7
-7 135 115 136 130 0 12 -22 8 -40 -8 -15 -13 -22 -10 -73 39 -86 80 -78 90
57 70 49 -8 91 -16 93 -18 3 -2 -1 -14 -7 -26 -18 -35 -1 -38 26 -5 14 17 41
47 60 67 41 44 46 68 8 43 -20 -13 -38 -15 -76 -11 -28 4 -54 8 -57 11 -4 2
-28 5 -53 6 l-46 3 0 45 c0 39 -5 50 -36 78 -41 38 -76 42 -121 15z m99 -81
c15 -29 13 -69 -5 -103 -12 -22 -30 -14 -90 40 -59 54 -66 70 -38 90 53 38
105 27 133 -27z"/>
<path d="M5797 1709 c-57 -35 -84 -73 -98 -138 -8 -38 -8 -60 1 -88 20 -61 70
-121 126 -148 177 -89 359 113 253 280 -35 55 -47 66 -103 96 -61 33 -124 32
-179 -2z m138 -46 c78 -50 115 -107 121 -192 4 -47 1 -60 -18 -83 -13 -15 -36
-29 -53 -31 -36 -5 -109 15 -130 36 -8 9 -26 24 -39 35 -63 49 -94 185 -52
231 23 25 71 41 106 34 14 -3 43 -17 65 -30z"/>
<path d="M1957 1707 c-27 -6 -42 -18 -54 -40 -28 -55 -22 -96 25 -167 55 -85
55 -117 1 -145 -40 -21 -54 -19 -91 13 -27 25 -31 36 -31 73 1 24 4 58 8 74 6
28 4 27 -44 -24 -56 -60 -61 -71 -32 -71 10 0 26 -11 35 -24 62 -96 194 -109
245 -25 26 42 17 92 -29 170 -22 36 -40 74 -40 85 0 35 26 61 62 60 49 -2 82
-54 74 -118 -7 -62 9 -63 59 -5 l37 42 -25 3 c-15 2 -34 16 -47 35 -45 65 -84
82 -153 64z"/>
<path d="M2236 1553 c-3 -4 6 -19 20 -34 l27 -28 -87 -145 c-47 -79 -92 -146
-98 -149 -7 -2 -21 0 -30 4 -11 6 -19 5 -24 -3 -4 -6 -3 -13 3 -15 5 -2 74
-42 153 -88 80 -47 149 -85 156 -85 13 0 65 75 57 83 -2 3 -24 -5 -48 -19
l-44 -24 -53 31 c-29 17 -68 42 -85 55 l-33 25 19 27 c10 15 29 44 42 64 13
21 28 38 33 38 15 0 76 -41 76 -51 0 -6 -7 -23 -15 -39 -9 -17 -11 -31 -6 -35
10 -5 111 136 111 155 0 16 -12 11 -42 -17 l-28 -26 -40 19 c-22 10 -40 22
-40 25 0 13 40 87 54 99 9 7 16 18 16 26 0 26 19 23 71 -12 30 -21 56 -38 58
-40 1 -1 6 -27 10 -56 l7 -53 17 26 c10 15 19 39 20 54 2 24 -8 33 -76 76 -43
27 -81 49 -84 49 -3 0 -24 13 -47 28 -61 41 -63 42 -70 35z"/>
<path d="M5548 1505 c-6 -14 -36 -39 -67 -56 -133 -76 -183 -100 -199 -97 -19
3 -19 -21 -1 -80 13 -40 24 -34 33 17 5 30 14 44 40 60 18 12 40 21 47 21 13
0 56 -69 138 -222 l30 -57 -32 -25 c-17 -14 -28 -28 -24 -32 7 -8 40 7 115 51
23 14 49 25 57 25 9 0 15 9 15 21 0 16 -4 20 -17 14 -40 -15 -73 -17 -73 -5 0
7 -15 38 -34 69 -18 31 -51 89 -71 130 -37 70 -37 74 -20 87 32 24 86 29 117
11 21 -12 28 -13 28 -4 0 13 -58 97 -66 97 -2 0 -10 -11 -16 -25z"/>
<path d="M2787 1242 l32 -27 -45 -130 c-25 -71 -51 -146 -57 -165 -11 -30 -17
-35 -44 -35 -17 0 -34 -3 -37 -6 -4 -4 79 -35 184 -69 112 -37 194 -59 199
-54 14 16 41 94 32 94 -4 0 -19 -9 -33 -19 -27 -21 -74 -37 -98 -32 -8 1 -28
9 -45 16 -16 8 -47 21 -69 29 -30 12 -37 20 -31 33 3 10 22 68 41 128 19 61
43 130 53 155 17 44 18 45 59 42 23 -1 42 2 42 7 0 15 -12 19 -61 25 -25 3
-65 12 -88 21 -62 22 -71 18 -34 -13z"/>
<path d="M5045 1237 c-5 -6 -11 -73 -12 -147 -3 -257 -1 -239 -29 -267 -14
-14 -23 -27 -21 -29 7 -8 143 51 142 61 0 6 -8 9 -19 7 -29 -4 -42 14 -44 61
-3 49 3 56 66 81 l44 17 34 -38 c40 -43 42 -58 12 -84 -23 -18 -23 -18 -2 -19
11 0 24 3 28 7 4 4 33 17 64 28 56 20 73 43 28 37 -23 -3 -38 10 -96 88 -74
98 -163 205 -173 207 -7 2 -16 -3 -22 -10z m71 -134 l46 -58 -48 -22 c-27 -12
-50 -20 -53 -18 -8 9 -9 155 -1 155 5 0 30 -26 56 -57z"/>
<path d="M4600 1118 c-117 -32 -140 -40 -140 -48 0 -5 15 -8 32 -7 29 2 34 -2
45 -36 7 -21 15 -48 17 -60 2 -12 12 -51 21 -87 9 -36 19 -80 21 -98 2 -18 5
-38 7 -44 1 -7 -10 -18 -25 -25 -40 -20 -34 -32 10 -23 95 19 142 34 139 44
-2 6 -15 10 -29 8 -23 -3 -27 2 -37 44 -16 63 -24 124 -17 124 23 0 166 -123
166 -142 0 -4 -9 -8 -20 -8 -20 0 -27 -14 -12 -24 5 -3 28 2 53 11 24 8 55 17
69 19 39 7 50 12 50 25 0 7 -10 9 -25 6 -26 -5 -50 11 -129 83 -21 19 -45 39
-53 43 -13 8 -12 12 5 30 11 12 23 32 26 44 10 32 -11 100 -37 118 -24 17 -84
18 -137 3z m103 -48 c21 -36 21 -64 0 -100 -18 -31 -61 -56 -74 -43 -9 10 -39
124 -39 151 0 41 88 34 113 -8z"/>
<path d="M3356 1071 c-11 -4 -20 -14 -22 -22 -2 -15 -166 -264 -189 -288 -12
-12 -23 -15 -68 -20 -18 -2 6 -21 26 -21 13 0 46 -6 75 -14 36 -9 55 -10 59
-3 4 6 2 12 -4 14 -6 2 -19 10 -29 18 -18 13 -18 15 5 60 l25 47 48 -6 c82
-11 85 -15 84 -91 -1 -35 -4 -40 -26 -43 -29 -4 -52 -22 -29 -23 16 -1 28 -3
99 -18 28 -6 55 -11 60 -11 18 0 10 19 -9 25 -24 7 -28 20 -36 110 -3 39 -7
86 -10 105 -3 19 -7 62 -10 95 -8 95 -12 101 -49 86z m-12 -93 c12 -57 15
-118 6 -123 -17 -11 -90 7 -90 22 0 18 62 122 72 123 4 0 10 -10 12 -22z"/>
<path d="M4143 1050 c-116 -52 -153 -181 -90 -308 39 -81 156 -124 244 -91 39
14 101 77 113 113 29 90 4 197 -60 256 -52 48 -139 61 -207 30z m109 -15 c72
-19 124 -181 88 -276 -23 -61 -51 -90 -92 -95 -102 -14 -187 154 -144 284 28
84 69 108 148 87z"/>
<path d="M3595 1050 c-7 -11 6 -17 45 -22 24 -3 25 -6 23 -58 -11 -320 -8
-295 -34 -298 -93 -12 -51 -31 80 -37 132 -7 174 3 196 45 32 62 14 118 -50
159 -14 8 -16 14 -8 17 72 31 83 137 18 180 -30 19 -259 32 -270 14z m227 -40
c26 -27 29 -35 24 -68 -7 -40 -34 -69 -72 -78 -44 -11 -51 -1 -47 66 3 51 7
91 12 108 1 1 13 2 27 2 15 0 38 -12 56 -30z m1 -195 c32 -20 41 -46 33 -89
-9 -46 -39 -71 -86 -71 -21 0 -42 4 -46 8 -13 13 -6 151 9 174 9 14 52 4 90
-22z"/>
</g>
</svg>
